<svg preserveAspectRatio="none" width="100%" height="100%" overflow="visible" style="display: block;" viewBox="0 0 350 350" fill="none" xmlns="http://www.w3.org/2000/svg">
<g id="SealPercent">
<path id="Vector" d="M308.793 140.574C303.639 135.187 298.307 129.637 296.297 124.756C294.438 120.285 294.328 112.875 294.219 105.697C294.014 92.3535 293.795 77.2324 283.281 66.7187C272.768 56.2051 257.646 55.9863 244.303 55.7812C237.125 55.6719 229.715 55.5625 225.244 53.7031C220.377 51.6934 214.812 46.3613 209.426 41.207C199.992 32.1426 189.273 21.875 175 21.875C160.727 21.875 150.021 32.1426 140.574 41.207C135.187 46.3613 129.637 51.6934 124.756 53.7031C120.312 55.5625 112.875 55.6719 105.697 55.7812C92.3535 55.9863 77.2324 56.2051 66.7187 66.7187C56.2051 77.2324 56.0547 92.3535 55.7812 105.697C55.6719 112.875 55.5625 120.285 53.7031 124.756C51.6934 129.623 46.3613 135.187 41.207 140.574C32.1426 150.021 21.875 160.727 21.875 175C21.875 189.273 32.1426 199.979 41.207 209.426C46.3613 214.812 51.6934 220.363 53.7031 225.244C55.5625 229.715 55.6719 237.125 55.7812 244.303C55.9863 257.646 56.2051 272.768 66.7187 283.281C77.2324 293.795 92.3535 294.014 105.697 294.219C112.875 294.328 120.285 294.438 124.756 296.297C129.623 298.307 135.187 303.639 140.574 308.793C150.008 317.857 160.727 328.125 175 328.125C189.273 328.125 199.979 317.857 209.426 308.793C214.812 303.639 220.363 298.307 225.244 296.297C229.715 294.438 237.125 294.328 244.303 294.219C257.646 294.014 272.768 293.795 283.281 283.281C293.795 272.768 294.014 257.646 294.219 244.303C294.328 237.125 294.438 229.715 296.297 225.244C298.307 220.377 303.639 214.812 308.793 209.426C317.857 199.979 328.125 189.273 328.125 175C328.125 160.727 317.857 150.021 308.793 140.574ZM293.002 194.291C286.453 201.127 279.672 208.195 276.076 216.877C272.631 225.217 272.48 234.746 272.344 243.975C272.207 253.545 272.057 263.566 267.805 267.805C263.553 272.043 253.6 272.207 243.975 272.344C234.746 272.48 225.217 272.631 216.877 276.076C208.195 279.672 201.127 286.453 194.291 293.002C187.455 299.551 180.469 306.25 175 306.25C169.531 306.25 162.49 299.523 155.709 293.002C148.928 286.48 141.805 279.672 133.123 276.076C124.783 272.631 115.254 272.48 106.025 272.344C96.4551 272.207 86.4336 272.057 82.1953 267.805C77.957 263.553 77.793 253.6 77.6562 243.975C77.5195 234.746 77.3691 225.217 73.9238 216.877C70.3281 208.195 63.5469 201.127 56.998 194.291C50.4492 187.455 43.75 180.469 43.75 175C43.75 169.531 50.4766 162.504 56.998 155.709C63.5195 148.914 70.3281 141.805 73.9238 133.123C77.3691 124.783 77.5195 115.254 77.6562 106.025C77.793 96.4551 77.9434 86.4336 82.1953 82.1953C86.4473 77.957 96.4004 77.793 106.025 77.6562C115.254 77.5195 124.783 77.3691 133.123 73.9238C141.805 70.3281 148.873 63.5469 155.709 56.998C162.545 50.4492 169.531 43.75 175 43.75C180.469 43.75 187.51 50.4766 194.291 56.998C201.072 63.5195 208.195 70.3281 216.877 73.9238C225.217 77.3691 234.746 77.5195 243.975 77.6562C253.545 77.793 263.566 77.9434 267.805 82.1953C272.043 86.4473 272.207 96.4004 272.344 106.025C272.48 115.254 272.631 124.783 276.076 133.123C279.672 141.805 286.453 148.873 293.002 155.709C299.551 162.545 306.25 169.531 306.25 175C306.25 180.469 299.523 187.496 293.002 194.291ZM164.062 131.25C164.063 124.76 162.138 118.416 158.533 113.02C154.927 107.624 149.803 103.419 143.807 100.935C137.811 98.4517 131.214 97.8019 124.849 99.068C118.484 100.334 112.637 103.459 108.048 108.048C103.459 112.637 100.334 118.484 99.068 124.849C97.8019 131.214 98.4517 137.811 100.935 143.807C103.419 149.803 107.624 154.927 113.02 158.533C118.416 162.138 124.76 164.062 131.25 164.062C139.952 164.062 148.298 160.605 154.452 154.452C160.605 148.298 164.062 139.952 164.062 131.25ZM120.312 131.25C120.312 129.087 120.954 126.972 122.156 125.173C123.358 123.375 125.066 121.973 127.064 121.145C129.063 120.317 131.262 120.101 133.384 120.523C135.505 120.945 137.454 121.986 138.984 123.516C140.514 125.046 141.555 126.995 141.977 129.116C142.399 131.238 142.183 133.437 141.355 135.436C140.527 137.434 139.125 139.142 137.327 140.344C135.528 141.546 133.413 142.188 131.25 142.188C128.349 142.188 125.567 141.035 123.516 138.984C121.465 136.933 120.312 134.151 120.312 131.25ZM218.75 185.938C212.26 185.938 205.916 187.862 200.52 191.467C195.124 195.073 190.919 200.197 188.435 206.193C185.952 212.189 185.302 218.786 186.568 225.151C187.834 231.516 190.959 237.363 195.548 241.952C200.137 246.541 205.984 249.666 212.349 250.932C218.714 252.198 225.311 251.548 231.307 249.065C237.303 246.581 242.427 242.376 246.033 236.98C249.638 231.584 251.562 225.24 251.562 218.75C251.562 210.048 248.105 201.702 241.952 195.548C235.798 189.395 227.452 185.938 218.75 185.938ZM218.75 229.688C216.587 229.688 214.472 229.046 212.673 227.844C210.875 226.642 209.473 224.934 208.645 222.936C207.817 220.937 207.601 218.738 208.023 216.616C208.445 214.495 209.486 212.546 211.016 211.016C212.546 209.486 214.495 208.445 216.616 208.023C218.738 207.601 220.937 207.817 222.936 208.645C224.934 209.473 226.642 210.875 227.844 212.673C229.046 214.472 229.688 216.587 229.688 218.75C229.688 221.651 228.535 224.433 226.484 226.484C224.433 228.535 221.651 229.688 218.75 229.688ZM237.426 128.051L128.051 237.426C127.035 238.442 125.828 239.248 124.5 239.798C123.173 240.348 121.75 240.631 120.312 240.631C118.875 240.631 117.452 240.348 116.125 239.798C114.797 239.248 113.59 238.442 112.574 237.426C111.558 236.41 110.752 235.203 110.202 233.875C109.652 232.548 109.369 231.125 109.369 229.688C109.369 228.25 109.652 226.827 110.202 225.5C110.752 224.172 111.558 222.965 112.574 221.949L221.949 112.574C222.965 111.558 224.172 110.752 225.5 110.202C226.827 109.652 228.25 109.369 229.688 109.369C231.125 109.369 232.548 109.652 233.875 110.202C235.203 110.752 236.41 111.558 237.426 112.574C238.442 113.59 239.248 114.797 239.798 116.125C240.348 117.452 240.631 118.875 240.631 120.312C240.631 121.75 240.348 123.173 239.798 124.5C239.248 125.828 238.442 127.035 237.426 128.051Z" fill="var(--fill-0, #008774)"/>
</g>
</svg>
