<svg preserveAspectRatio="none" width="100%" height="100%" overflow="visible" style="display: block;" viewBox="0 0 350 350" fill="none" xmlns="http://www.w3.org/2000/svg">
<g id="ReadCvLogo">
<path id="Vector" d="M288.176 53.6621L110.1 22.2168C104.387 21.2115 98.5089 22.5163 93.7581 25.8442C89.0073 29.172 85.7727 34.2505 84.7656 39.9629L44.0918 271.018C43.5943 273.848 43.6595 276.749 44.2836 279.554C44.9077 282.36 46.0785 285.015 47.7291 287.367C49.3796 289.72 51.4777 291.725 53.9032 293.266C56.3288 294.808 59.0343 295.856 61.8652 296.352L239.941 327.797C242.773 328.296 245.675 328.233 248.482 327.609C251.289 326.986 253.946 325.816 256.3 324.165C258.654 322.514 260.66 320.416 262.202 317.989C263.745 315.563 264.794 312.856 265.289 310.023L305.963 78.9687C306.959 73.2542 305.645 67.378 302.31 62.6322C298.974 57.8865 293.89 54.6599 288.176 53.6621ZM243.715 306.25L65.625 274.805L106.299 43.75L284.375 75.1953L243.715 306.25ZM122.145 79.8711C122.651 77.016 124.271 74.479 126.647 72.8177C129.024 71.1564 131.963 70.5068 134.818 71.0117L248.295 91.041C250.992 91.5134 253.413 92.9802 255.081 95.1515C256.749 97.3228 257.542 100.041 257.304 102.768C257.065 105.496 255.812 108.035 253.792 109.883C251.772 111.732 249.133 112.755 246.395 112.752C245.753 112.751 245.113 112.696 244.481 112.588L131.004 92.5449C128.149 92.0383 125.612 90.4187 123.951 88.0421C122.289 85.6655 121.64 82.7265 122.145 79.8711ZM114.57 122.965C114.82 121.55 115.345 120.198 116.117 118.986C116.889 117.774 117.892 116.727 119.069 115.903C120.246 115.079 121.574 114.495 122.976 114.184C124.379 113.873 125.829 113.842 127.244 114.092L240.721 134.135C243.437 134.589 245.881 136.051 247.566 138.229C249.252 140.406 250.053 143.139 249.812 145.882C249.57 148.625 248.303 151.176 246.263 153.026C244.223 154.875 241.56 155.887 238.807 155.859C238.16 155.861 237.515 155.801 236.879 155.682L123.402 135.652C120.55 135.139 118.017 133.515 116.361 131.136C114.705 128.757 114.061 125.818 114.57 122.965ZM106.982 166.045C107.499 163.197 109.122 160.67 111.498 159.018C113.873 157.365 116.807 156.721 119.656 157.227L176.367 167.193C179.063 167.666 181.484 169.131 183.152 171.301C184.819 173.471 185.613 176.187 185.376 178.914C185.139 181.64 183.889 184.179 181.872 186.028C179.855 187.878 177.217 188.904 174.48 188.904C173.839 188.904 173.199 188.849 172.566 188.74L115.828 178.719C112.976 178.209 110.442 176.588 108.783 174.212C107.125 171.836 106.477 168.898 106.982 166.045Z" fill="var(--fill-0, #008774)"/>
</g>
</svg>
